<?xml version="1.0" encoding="us-ascii" standalone="no"?><svg xmlns="http://www.w3.org/2000/svg" xmlns:xlink="http://www.w3.org/1999/xlink" contentStyleType="text/css" height="382px" preserveAspectRatio="none" style="width:359px;height:382px;background:#FFFFFF;" version="1.1" viewBox="0 0 359 382" width="359px" zoomAndPan="magnify"><defs/><g><line style="stroke:#181818;stroke-width:0.5;stroke-dasharray:5.0,5.0;" x1="40" x2="40" y1="36.2969" y2="347.625"/><line style="stroke:#181818;stroke-width:0.5;stroke-dasharray:5.0,5.0;" x1="302" x2="302" y1="36.2969" y2="347.625"/><rect fill="#E2E2F0" height="30.2969" rx="2.5" ry="2.5" style="stroke:#181818;stroke-width:0.5;" width="71" x="5" y="5"/><text fill="#000000" font-family="sans-serif" font-size="14" lengthAdjust="spacing" textLength="57" x="12" y="24.9951">Scooter</text><rect fill="#E2E2F0" height="30.2969" rx="2.5" ry="2.5" style="stroke:#181818;stroke-width:0.5;" width="71" x="5" y="346.625"/><text fill="#000000" font-family="sans-serif" font-size="14" lengthAdjust="spacing" textLength="57" x="12" y="366.6201">Scooter</text><rect fill="#E2E2F0" height="30.2969" rx="2.5" ry="2.5" style="stroke:#181818;stroke-width:0.5;" width="101" x="252" y="5"/><text fill="#000000" font-family="sans-serif" font-size="14" lengthAdjust="spacing" textLength="87" x="259" y="24.9951">ScooterApp</text><rect fill="#E2E2F0" height="30.2969" rx="2.5" ry="2.5" style="stroke:#181818;stroke-width:0.5;" width="101" x="252" y="346.625"/><text fill="#000000" font-family="sans-serif" font-size="14" lengthAdjust="spacing" textLength="87" x="259" y="366.6201">ScooterApp</text><polygon fill="#181818" points="290.5,63.4297,300.5,67.4297,290.5,71.4297,294.5,67.4297" style="stroke:#181818;stroke-width:1.0;"/><line style="stroke:#181818;stroke-width:1.0;" x1="40.5" x2="296.5" y1="67.4297" y2="67.4297"/><text fill="#000000" font-family="sans-serif" font-size="13" lengthAdjust="spacing" textLength="162" x="47.5" y="62.3638">Create Scooter at Station</text><polygon fill="#181818" points="51.5,92.5625,41.5,96.5625,51.5,100.5625,47.5,96.5625" style="stroke:#181818;stroke-width:1.0;"/><line style="stroke:#181818;stroke-width:1.0;" x1="45.5" x2="301.5" y1="96.5625" y2="96.5625"/><text fill="#000000" font-family="sans-serif" font-size="13" lengthAdjust="spacing" textLength="174" x="57.5" y="91.4966">Invalid Station: Throw Error</text><polygon fill="#181818" points="51.5,121.6953,41.5,125.6953,51.5,129.6953,47.5,125.6953" style="stroke:#181818;stroke-width:1.0;"/><line style="stroke:#181818;stroke-width:1.0;" x1="45.5" x2="301.5" y1="125.6953" y2="125.6953"/><text fill="#000000" font-family="sans-serif" font-size="13" lengthAdjust="spacing" textLength="168" x="57.5" y="120.6294">ELSE: Create New Scooter</text><polygon fill="#181818" points="290.5,150.8281,300.5,154.8281,290.5,158.8281,294.5,154.8281" style="stroke:#181818;stroke-width:1.0;"/><line style="stroke:#181818;stroke-width:1.0;" x1="40.5" x2="296.5" y1="154.8281" y2="154.8281"/><text fill="#000000" font-family="sans-serif" font-size="13" lengthAdjust="spacing" textLength="151" x="47.5" y="149.7622">Dock Scooter at Station</text><polygon fill="#181818" points="51.5,179.9609,41.5,183.9609,51.5,187.9609,47.5,183.9609" style="stroke:#181818;stroke-width:1.0;"/><line style="stroke:#181818;stroke-width:1.0;" x1="45.5" x2="301.5" y1="183.9609" y2="183.9609"/><text fill="#000000" font-family="sans-serif" font-size="13" lengthAdjust="spacing" textLength="174" x="57.5" y="178.895">Invalid Station: Throw Error</text><polygon fill="#181818" points="51.5,209.0938,41.5,213.0938,51.5,217.0938,47.5,213.0938" style="stroke:#181818;stroke-width:1.0;"/><line style="stroke:#181818;stroke-width:1.0;" x1="45.5" x2="301.5" y1="213.0938" y2="213.0938"/><text fill="#000000" font-family="sans-serif" font-size="13" lengthAdjust="spacing" textLength="238" x="57.5" y="208.0278">Scooter Already Docked: Throw Error</text><polygon fill="#181818" points="51.5,238.2266,41.5,242.2266,51.5,246.2266,47.5,242.2266" style="stroke:#181818;stroke-width:1.0;"/><line style="stroke:#181818;stroke-width:1.0;" x1="45.5" x2="301.5" y1="242.2266" y2="242.2266"/><text fill="#000000" font-family="sans-serif" font-size="13" lengthAdjust="spacing" textLength="125" x="57.5" y="237.1606">ELSE: Dock Scooter</text><polygon fill="#181818" points="290.5,267.3594,300.5,271.3594,290.5,275.3594,294.5,271.3594" style="stroke:#181818;stroke-width:1.0;"/><line style="stroke:#181818;stroke-width:1.0;" x1="40.5" x2="296.5" y1="271.3594" y2="271.3594"/><text fill="#000000" font-family="sans-serif" font-size="13" lengthAdjust="spacing" textLength="110" x="47.5" y="266.2935">Rent Out Scooter</text><polygon fill="#181818" points="51.5,296.4922,41.5,300.4922,51.5,304.4922,47.5,300.4922" style="stroke:#181818;stroke-width:1.0;"/><line style="stroke:#181818;stroke-width:1.0;" x1="45.5" x2="301.5" y1="300.4922" y2="300.4922"/><text fill="#000000" font-family="sans-serif" font-size="13" lengthAdjust="spacing" textLength="236" x="57.5" y="295.4263">Scooter Already Rented: Throw Error</text><polygon fill="#181818" points="51.5,325.625,41.5,329.625,51.5,333.625,47.5,329.625" style="stroke:#181818;stroke-width:1.0;"/><line style="stroke:#181818;stroke-width:1.0;" x1="45.5" x2="301.5" y1="329.625" y2="329.625"/><text fill="#000000" font-family="sans-serif" font-size="13" lengthAdjust="spacing" textLength="120" x="57.5" y="324.5591">ELSE: Rent to User</text><!--SRC=[2qxEpoz9BLBGjLC8XZ0T2mgi59oBKXDBKc522eab2i4bYIMP-NbS25L8UgmKFFFA4dCoKs3Ah1H2CehoonLSYuhoYt3fSVK9TeLRvPTQ3fE1gKTtb4j-SZQDdGGptJ47wAgKIh2LgIaa-0RPZRZy4PIQLwBWNrg2hewGOq3wI78CsAAIV8NGujGY0000]--></g></svg>