<?xml version="1.0" encoding="us-ascii" standalone="no"?><svg xmlns="http://www.w3.org/2000/svg" xmlns:xlink="http://www.w3.org/1999/xlink" contentStyleType="text/css" height="441px" preserveAspectRatio="none" style="width:314px;height:441px;background:#FFFFFF;" version="1.1" viewBox="0 0 314 441" width="314px" zoomAndPan="magnify"><defs/><g><line style="stroke:#181818;stroke-width:0.5;stroke-dasharray:5.0,5.0;" x1="27" x2="27" y1="36.2969" y2="405.8906"/><line style="stroke:#181818;stroke-width:0.5;stroke-dasharray:5.0,5.0;" x1="257" x2="257" y1="36.2969" y2="405.8906"/><rect fill="#E2E2F0" height="30.2969" rx="2.5" ry="2.5" style="stroke:#181818;stroke-width:0.5;" width="45" x="5" y="5"/><text fill="#000000" font-family="sans-serif" font-size="14" lengthAdjust="spacing" textLength="31" x="12" y="24.9951">User</text><rect fill="#E2E2F0" height="30.2969" rx="2.5" ry="2.5" style="stroke:#181818;stroke-width:0.5;" width="45" x="5" y="404.8906"/><text fill="#000000" font-family="sans-serif" font-size="14" lengthAdjust="spacing" textLength="31" x="12" y="424.8857">User</text><rect fill="#E2E2F0" height="30.2969" rx="2.5" ry="2.5" style="stroke:#181818;stroke-width:0.5;" width="101" x="207" y="5"/><text fill="#000000" font-family="sans-serif" font-size="14" lengthAdjust="spacing" textLength="87" x="214" y="24.9951">ScooterApp</text><rect fill="#E2E2F0" height="30.2969" rx="2.5" ry="2.5" style="stroke:#181818;stroke-width:0.5;" width="101" x="207" y="404.8906"/><text fill="#000000" font-family="sans-serif" font-size="14" lengthAdjust="spacing" textLength="87" x="214" y="424.8857">ScooterApp</text><polygon fill="#181818" points="245.5,63.4297,255.5,67.4297,245.5,71.4297,249.5,67.4297" style="stroke:#181818;stroke-width:1.0;"/><line style="stroke:#181818;stroke-width:1.0;" x1="27.5" x2="251.5" y1="67.4297" y2="67.4297"/><text fill="#000000" font-family="sans-serif" font-size="13" lengthAdjust="spacing" textLength="184" x="34.5" y="62.3638">Login Credentials to Register</text><polygon fill="#181818" points="38.5,92.5625,28.5,96.5625,38.5,100.5625,34.5,96.5625" style="stroke:#181818;stroke-width:1.0;"/><line style="stroke:#181818;stroke-width:1.0;" x1="32.5" x2="256.5" y1="96.5625" y2="96.5625"/><text fill="#000000" font-family="sans-serif" font-size="13" lengthAdjust="spacing" textLength="173" x="44.5" y="91.4966">Invalid Details: Throw Error</text><polygon fill="#181818" points="38.5,121.6953,28.5,125.6953,38.5,129.6953,34.5,125.6953" style="stroke:#181818;stroke-width:1.0;"/><line style="stroke:#181818;stroke-width:1.0;" x1="32.5" x2="256.5" y1="125.6953" y2="125.6953"/><text fill="#000000" font-family="sans-serif" font-size="13" lengthAdjust="spacing" textLength="206" x="44.5" y="120.6294">Already Registered: Throw Error</text><polygon fill="#181818" points="38.5,150.8281,28.5,154.8281,38.5,158.8281,34.5,154.8281" style="stroke:#181818;stroke-width:1.0;"/><line style="stroke:#181818;stroke-width:1.0;" x1="32.5" x2="256.5" y1="154.8281" y2="154.8281"/><text fill="#000000" font-family="sans-serif" font-size="13" lengthAdjust="spacing" textLength="174" x="44.5" y="149.7622">Age Below 18: Return Error</text><polygon fill="#181818" points="38.5,179.9609,28.5,183.9609,38.5,187.9609,34.5,183.9609" style="stroke:#181818;stroke-width:1.0;"/><line style="stroke:#181818;stroke-width:1.0;" x1="32.5" x2="256.5" y1="183.9609" y2="183.9609"/><text fill="#000000" font-family="sans-serif" font-size="13" lengthAdjust="spacing" textLength="126" x="44.5" y="178.895">ELSE: Register User</text><polygon fill="#181818" points="245.5,209.0938,255.5,213.0938,245.5,217.0938,249.5,213.0938" style="stroke:#181818;stroke-width:1.0;"/><line style="stroke:#181818;stroke-width:1.0;" x1="27.5" x2="251.5" y1="213.0938" y2="213.0938"/><text fill="#000000" font-family="sans-serif" font-size="13" lengthAdjust="spacing" textLength="173" x="34.5" y="208.0278">Login Credentials to Sign In</text><polygon fill="#181818" points="38.5,238.2266,28.5,242.2266,38.5,246.2266,34.5,242.2266" style="stroke:#181818;stroke-width:1.0;"/><line style="stroke:#181818;stroke-width:1.0;" x1="32.5" x2="256.5" y1="242.2266" y2="242.2266"/><text fill="#000000" font-family="sans-serif" font-size="13" lengthAdjust="spacing" textLength="195" x="44.5" y="237.1606">Invalid Username: Throw Error</text><polygon fill="#181818" points="38.5,267.3594,28.5,271.3594,38.5,275.3594,34.5,271.3594" style="stroke:#181818;stroke-width:1.0;"/><line style="stroke:#181818;stroke-width:1.0;" x1="32.5" x2="256.5" y1="271.3594" y2="271.3594"/><text fill="#000000" font-family="sans-serif" font-size="13" lengthAdjust="spacing" textLength="206" x="44.5" y="266.2935">Incorrect Password: Throw Error</text><polygon fill="#181818" points="38.5,296.4922,28.5,300.4922,38.5,304.4922,34.5,300.4922" style="stroke:#181818;stroke-width:1.0;"/><line style="stroke:#181818;stroke-width:1.0;" x1="32.5" x2="256.5" y1="300.4922" y2="300.4922"/><text fill="#000000" font-family="sans-serif" font-size="13" lengthAdjust="spacing" textLength="115" x="44.5" y="295.4263">ELSE: Sign In User</text><polygon fill="#181818" points="245.5,325.625,255.5,329.625,245.5,333.625,249.5,329.625" style="stroke:#181818;stroke-width:1.0;"/><line style="stroke:#181818;stroke-width:1.0;" x1="27.5" x2="251.5" y1="329.625" y2="329.625"/><text fill="#000000" font-family="sans-serif" font-size="13" lengthAdjust="spacing" textLength="111" x="34.5" y="324.5591">Sign Out Request</text><polygon fill="#181818" points="38.5,354.7578,28.5,358.7578,38.5,362.7578,34.5,358.7578" style="stroke:#181818;stroke-width:1.0;"/><line style="stroke:#181818;stroke-width:1.0;" x1="32.5" x2="256.5" y1="358.7578" y2="358.7578"/><text fill="#000000" font-family="sans-serif" font-size="13" lengthAdjust="spacing" textLength="201" x="44.5" y="353.6919">User Not Signed In: Throw Error</text><polygon fill="#181818" points="38.5,383.8906,28.5,387.8906,38.5,391.8906,34.5,387.8906" style="stroke:#181818;stroke-width:1.0;"/><line style="stroke:#181818;stroke-width:1.0;" x1="32.5" x2="256.5" y1="387.8906" y2="387.8906"/><text fill="#000000" font-family="sans-serif" font-size="13" lengthAdjust="spacing" textLength="127" x="44.5" y="382.8247">ELSE: Sign Out User</text><!--SRC=[bOzD2i8m48NtFSLSm8KxoKBmfuj2KR7s0A4PQY1cwcIgU7lJAhhHMfSPlk_blJ8WmsGEHKKao8kcKP1JRJsi60rwiTe5488zrZP48dcJdLT6Nq7cBzfP0siKRLrGS3WoNI5bfi_2mZ5gStkbeXdXr0XBT96PpbGqfMK_WATvaQhN1_qnASUkBMpjuwh1iTtBwnF-RfxvYfYn4jZf4Ax48zO-wZzxV6_V0zjMuj1pYq4-PlNYXgIdqSJ0l_xluhlZ7G00]--></g></svg>